<svg id="Capa_1" enable-background="new 0 0 512 512" height="512" viewBox="0 0 512 512" width="512" xmlns="http://www.w3.org/2000/svg"><g><path d="m482 62.07h-181c-5.523 0-10 4.477-10 10s4.477 10 10 10h181c5.514 0 10 4.486 10 10v30.861h-472v-30.861c0-5.514 4.486-10 10-10h181c5.523 0 10-4.477 10-10s-4.477-10-10-10h-181c-16.542 0-30 13.458-30 30v278.28c0 16.542 13.458 30 30 30h237.004c18.209 29.714 50.983 49.581 88.313 49.581s70.104-19.867 88.313-49.581h38.37c16.542 0 30-13.458 30-30v-278.28c0-16.542-13.458-30-30-30zm10 80.86v50h-472v-50zm-136.683 287c-46.042 0-83.5-37.458-83.5-83.5s37.458-83.5 83.5-83.5 83.5 37.458 83.5 83.5-37.458 83.5-83.5 83.5zm126.683-49.58h-28.898c3.698-10.632 5.715-22.044 5.715-33.919 0-57.07-46.43-103.5-103.5-103.5s-103.5 46.43-103.5 103.5c0 11.876 2.017 23.288 5.715 33.919h-227.532c-5.514 0-10-4.486-10-10v-157.42h472v157.42c0 5.514-4.486 10-10 10z"/><circle cx="256" cy="72.07" r="10"/><path d="m60 303.297h78.06c5.523 0 10-4.477 10-10s-4.477-10-10-10h-78.06c-5.523 0-10 4.477-10 10s4.477 10 10 10z"/><path d="m208.634 330.346h-148.634c-5.523 0-10 4.477-10 10s4.477 10 10 10h148.634c5.523 0 10-4.477 10-10s-4.477-10-10-10z"/><path d="m378.62 308.985-60.748 60.748c-3.905 3.905-3.905 10.237 0 14.143 1.953 1.953 4.512 2.929 7.071 2.929s5.119-.976 7.071-2.929l60.748-60.748c3.905-3.905 3.905-10.237 0-14.143-3.905-3.905-10.237-3.905-14.142 0z"/><circle cx="327.033" cy="318.146" r="10"/><circle cx="383.601" cy="374.715" r="10"/></g></svg>