<svg xmlns="http://www.w3.org/2000/svg" xmlns:xlink="http://www.w3.org/1999/xlink" width="120" height="40" viewBox="0 0 120 40"><defs><style>.a{fill:#fff;}.a,.b{fill-rule:evenodd;}.c{mask:url(#a);}</style><mask id="a" x="-0.00013" y="9.7268" width="19.94396" height="25.13681" maskUnits="userSpaceOnUse"><polygon class="a" points="0 9.727 19.944 9.727 19.944 34.864 0 34.864 0 9.727"/></mask></defs><path class="b" d="M21.44376,21.00188c-.0978-.003-.1284.0378-.0996.1056a1.27565,1.27565,0,0,0,.0648.1356.21242.21242,0,0,0,.0516.0612c.0528.0396.1338.042.1602.0078a.19247.19247,0,0,0-.018-.1854c-.0216-.0222-.0348-.0534-.0594-.0702a.716.716,0,0,0-.0996-.0546"/><path class="b" d="M21.694,17.96558a.18816.18816,0,0,0,.072.0354.07608.07608,0,0,0,.0978-.0948c-.0216-.1092-.0354-.2214-.0666-.3282a1.25322,1.25322,0,0,0-.231-.4998.20191.20191,0,0,0-.1482-.0804.162.162,0,0,0-.156.1002.39565.39565,0,0,0-.0114.2976,1.48651,1.48651,0,0,0,.4434.57"/><path class="b" d="M21.72438,18.36752c-.0282-.0444-.0522-.0852-.0792-.123-.0378-.0546-.081-.105-.1158-.1614-.0216-.033-.0408-.06-.0852-.0504-.045.0102-.054.0438-.0546.0834a.24911.24911,0,0,0,.3348.2514"/><path class="b" d="M21.74256,19.75736c.0264.0246.054.048.081.072a.35966.35966,0,0,0,.0414-.0954.18908.18908,0,0,0-.0186-.1044c-.0912-.1722-.1914-.3396-.2802-.5124a.47221.47221,0,0,0-.4566-.2688.12978.12978,0,0,0-.072.0144.31467.31467,0,0,0-.0534.069.254.254,0,0,0,.0594.0378.208.208,0,0,1,.1254.096c.0204.0342.0456.066.0684.0996.03.045.0252.0612-.027.0798a.51316.51316,0,0,1-.3078.0042c-.1434-.0384-.2862-.0792-.4284-.12-.0372-.0102-.0816-.0198-.0984.0198a.14815.14815,0,0,0-.006.1188.62075.62075,0,0,0,.33.276c.0612.0156.1242.0264.1998.0426a.87813.87813,0,0,0,.1776-.0492.464.464,0,0,1,.3384-.0276.49622.49622,0,0,1,.3096.2178.1228.1228,0,0,0,.0174.03"/><path class="b" d="M22.29684,17.3093a.4988.4988,0,0,0,.4866-.6456.42919.42919,0,0,0-.0912-.1248.49746.49746,0,0,0-.5016-.1728,1.06122,1.06122,0,0,0-.2286.081.06918.06918,0,0,0-.036.0342.79013.79013,0,0,0-.0516.504c.0726.2364.156.309.4224.324"/><path class="b" d="M22.43808,17.91812a.038.038,0,0,0,.036-.006.03726.03726,0,0,0,.0036-.0354.639.639,0,0,1-.078-.333.21917.21917,0,0,0-.0288-.0924c-.0204-.0336-.051-.0282-.0642.0084a.669.669,0,0,0-.0174.0828.58494.58494,0,0,0,.0732.3066.30881.30881,0,0,0,.0756.069"/><path class="b" d="M22.17618,16.23122c.0672.0246.117.0012.1296-.069.0114-.066.0132-.1332.018-.1998.0018-.0228-.0024-.0462-.0012-.0696a.18.18,0,0,1,.1074-.1716.1658.1658,0,0,1,.1926.0372,2.83362,2.83362,0,0,1,.198.2328.32888.32888,0,0,0,.351.105.14745.14745,0,0,0,.075-.0594.38332.38332,0,0,0-.1548-.5904.85877.85877,0,0,0-.2004-.063,1.27977,1.27977,0,0,0-.4794.1572.42382.42382,0,0,0-.2754.3564c-.0066.063-.03.1236-.042.1866a.12331.12331,0,0,0,.0816.1476"/><path class="b" d="M21.994,19.11926a.52214.52214,0,0,0,.7638.3324.19579.19579,0,0,0,.0774-.0738,1.07662,1.07662,0,0,0,.1302-.537.86155.86155,0,0,0-.1302-.504.294.294,0,0,0-.108-.1056.49788.49788,0,0,0-.4062-.0588.31508.31508,0,0,0-.1506.099.985.985,0,0,0-.1764.8478"/><path class="b" d="M24.40158,19.95836a.63725.63725,0,0,0-.9048.3846.52071.52071,0,0,0,.0864.4812.6926.6926,0,0,0,.465.2628.86639.86639,0,0,0,.372-.0252.2258.2258,0,0,0,.1014-.0528.60794.60794,0,0,0,.2448-.4602.53472.53472,0,0,0-.3648-.5904"/><path class="b" d="M23.42892,18.4859c.0006-.048-.0372-.0504-.0642-.0396a.35438.35438,0,0,0-.1932.1398.0601.0601,0,0,0,.0522.0972.30454.30454,0,0,0,.2052-.1974"/><path class="b" d="M23.11074,21.183a.47391.47391,0,0,0,.0276.0966.082.082,0,0,0,.06.0414.10427.10427,0,0,0,.0642-.0402c.0282-.0324.0492-.072.0774-.1056a.2737.2737,0,0,0,.0702-.1794.081.081,0,0,0-.1248-.0804.28848.28848,0,0,0-.1746.2676"/><path class="b" d="M24.0066,19.30208a.16141.16141,0,0,1-.186-.06c-.0516-.0654-.0576-.114.0036-.1662.075-.063.1476-.1284.225-.1872.0306-.0234.036-.0432.009-.063a.96934.96934,0,0,0-.102-.063.34956.34956,0,0,0-.2778.1182.98754.98754,0,0,0-.0828.111,2.505,2.505,0,0,0-.2916.5628c-.0222.0732-.0576.1428-.0858.2148-.0048.0126-.015.0258-.0132.0378a.65126.65126,0,0,0,.0228.081.25076.25076,0,0,0,.066-.0276c.0456-.039.0864-.0822.129-.1242a.43721.43721,0,0,1,.318-.1308c.129-.0012.2586,0,.3876-.0084a1.1,1.1,0,0,0,.4242-.1212.43739.43739,0,0,0,.231-.3546c.0072-.0474-.0114-.06-.0546-.0468-.1434.0438-.288.0864-.432.1308-.0972.0306-.1932.0654-.2904.0966"/><path class="b" d="M24.14316,17.47106a1.32466,1.32466,0,0,0,.045-.1308.35157.35157,0,0,0-.1374-.3036.0849.0849,0,0,0-.1116-.003c-.0438.0384-.0936.075-.0798.1434a.60012.60012,0,0,0,.2124.3084.04116.04116,0,0,0,.0714-.0144"/><path class="b" d="M23.10546,16.8974a.989.989,0,0,0-.189.4776c-.0024.0462-.003.0924-.0042.1386h.0066c-.0012.0618-.0036.123-.0042.1848-.0006.0552.0222.0732.0762.0624a.07284.07284,0,0,0,.0216-.006,1.487,1.487,0,0,0,.609-.4818.23934.23934,0,0,0-.0198-.3396,1.019,1.019,0,0,0-.198-.1464.158.158,0,0,0-.1704.0054.40979.40979,0,0,0-.1278.105"/><path class="b" d="M23.60586,18.224a.40305.40305,0,0,0,.429.3042c.0444-.0012.0888-.0072.1332-.006a.32962.32962,0,0,0,.351-.3012.47857.47857,0,0,0-.681-.5286.36528.36528,0,0,0-.2454.3762,1.21537,1.21537,0,0,0,.0132.1554"/><path class="b" d="M23.075,20.42828a.10666.10666,0,0,0-.0222-.078c-.0438-.0432-.09-.027-.1134.0366a.65853.65853,0,0,1-.42.402l-.0168.0036-.0174-.0036c.0108-.0714.021-.1434.0336-.2148.0264-.153-.0084-.1332.1656-.1686a.22028.22028,0,0,0,.0966-.0468.511.511,0,0,0,.2046-.3318c.0018-.0258.021-.0504.0252-.0762.0018-.018-.0036-.0468-.0156-.054a.06872.06872,0,0,0-.0606.0006.28557.28557,0,0,1-.1914.0834c-.0486.0084-.066-.0102-.0858-.0516a.36941.36941,0,0,0-.0954-.1314.12239.12239,0,0,0-.2022.0672c-.036.093-.087.0996-.1584.0258a.28049.28049,0,0,0-.0984-.0666.05381.05381,0,0,0-.0774.0612.59991.59991,0,0,0,.102.309.09409.09409,0,0,0,.018.0222c.1608.1332.1284.3102.1122.4962a.57358.57358,0,0,1-.2424-.2604.23309.23309,0,0,0-.057-.0906.08839.08839,0,0,0-.1512.0516.67929.67929,0,0,0,.1392.5766.11636.11636,0,0,1,.0306.1242,1.17983,1.17983,0,0,0,.141.9132c.0408.0714.0894.1398.1374.2076a.12509.12509,0,0,0,.1914.027,2.74641,2.74641,0,0,0,.2274-.2376c.0366-.0414.0588-.096.0942-.138a.51511.51511,0,0,0,.0984-.4296c-.0168-.1176-.0396-.2352-.054-.3534a.13659.13659,0,0,1,.0312-.0918,1.04157,1.04157,0,0,0,.231-.5832"/><path class="b" d="M21.0816,23.5859a.13713.13713,0,0,1,.0318-.054.18168.18168,0,0,0,.0498-.18c-.012-.0564-.0096-.1152-.0192-.1722a.6214.6214,0,0,0-.5274-.5178,1.0116,1.0116,0,0,0-.3324-.0132.70235.70235,0,0,0-.4362.6594.66734.66734,0,0,0,.2478.4722.38827.38827,0,0,0,.3156.0834l.0018.0168a4.01661,4.01661,0,0,0,.4254-.0756.33571.33571,0,0,0,.243-.219"/><path class="b" d="M23.26716,23.00054a.40026.40026,0,0,0,.087-.2388.22367.22367,0,0,0-.0018-.0366.06627.06627,0,0,0-.1086-.0528.28715.28715,0,0,0-.096.315.06569.06569,0,0,0,.1194.0132"/><path class="b" d="M22.85406,23.86418c-.0072.0114-.0126.0336-.0066.0414.0066.009.0276.0108.042.0096a.775.775,0,0,0,.3756-.1344.1577.1577,0,0,0,.0636-.1866c-.0102-.024-.0372-.0414-.0612-.066a1.5666,1.5666,0,0,0-.1716.0762.82733.82733,0,0,0-.2418.2598"/><path class="b" d="M24.1203,24.1355a.31891.31891,0,0,0-.3288-.0684.39125.39125,0,0,0-.0816.03.79376.79376,0,0,0-.4644.4848.38761.38761,0,0,1-.06.0936c-.0276-.114-.0498-.2088-.075-.303a.218.218,0,0,0-.2886-.1578c-.033.0084-.063.054-.0816.0888a.16892.16892,0,0,1-.1242.1014c-.0534.0096-.087-.0114-.0864-.0648.0006-.1194.0042-.2394.0132-.3588a.11032.11032,0,0,1,.0438-.0636.26878.26878,0,0,0,.117-.297.13857.13857,0,0,1,.0552-.144c.0384-.0324.0768-.0648.1128-.1002.0486-.0468.045-.0906-.0126-.1278a.26371.26371,0,0,0-.0966-.033.07463.07463,0,0,1-.0696-.063.42411.42411,0,0,0-.3894-.3372.331.331,0,0,0-.3576.231c-.012.0396-.0258.0624-.0744.0624a.19284.19284,0,0,0-.0888.0348c-.0348.0186-.045.0468-.0168.0798a.03755.03755,0,0,1,.0096.015.29591.29591,0,0,0,.162.2106c.0186.0102.0282.0504.0276.0762a.3159.3159,0,0,0,.0762.2352.42988.42988,0,0,1,.1056.3216c-.0066.0972-.0066.1956-.0096.312-.0342-.0246-.0546-.0366-.0714-.051a.66609.66609,0,0,0-.3312-.1428c-.0714-.012-.0996.0282-.084.099.0246.1164.042.2346.0582.3522.0078.0564-.0288.0876-.0846.114a2.21787,2.21787,0,0,1-.1422-.2646.58557.58557,0,0,0-.4578-.3654.42477.42477,0,0,0-.357.0252.24724.24724,0,0,0-.0528.0438c-.036.0468-.0264.072.0318.084a.28653.28653,0,0,0,.0456.0048.48167.48167,0,0,1,.3066.1344c.0486.0462.0954.0936.1536.15a.80585.80585,0,0,1-.1056.027c-.1398.0138-.2802.0252-.4206.036-.0672.0054-.1014.0408-.0756.1032a.64034.64034,0,0,0,.1236.2184,2.428,2.428,0,0,0,.8406.5526.93269.93269,0,0,0,.6306.0132c.0216-.0066.0438-.0108.0744-.0186.012.1938.0234.381.0354.5676l-.0186.0138a.696.696,0,0,0-.7056-.0912,1.13,1.13,0,0,0,.1092.1242,3.147,3.147,0,0,1,.405.4752.176.176,0,0,1,.0198.036c.0804.1914.162.3834.2412.576.027.0678.0636.0948.1308.0708.0222-.0078.0414-.0426.0504-.069.0534-.153.1014-.3084.1554-.4614a1.25,1.25,0,0,1,.3978-.579.754.754,0,0,0,.0822-.0816c.033-.0366.0288-.0678-.0174-.078a.70812.70812,0,0,0-.5292-.0138l-.021-.0012c-.0042-.1656-.009-.3318-.0138-.504.0378.0066.069.0132.1002.0186a.56524.56524,0,0,0,.4122-.0738,1.04776,1.04776,0,0,0,.1614-.1014,4.83266,4.83266,0,0,1,.6714-.444.475.475,0,0,0,.1296-.1722c.0258-.048-.0534-.1296-.1272-.135-.063-.0048-.1266-.0042-.2004-.0066a.27269.27269,0,0,1,.1206-.1446c.0384-.0186.0744-.0408.1116-.0618a.32426.32426,0,0,1,.2664-.0534.07728.07728,0,0,0,.0348.003c.0204-.0048.0396-.0138.0606-.021a.25328.25328,0,0,0-.0318-.051c-.042-.0396-.0876-.0762-.1302-.1152"/><path class="b" d="M24.517,22.6853a.61461.61461,0,0,0-.6834.0546.66733.66733,0,0,0-.2472.4374c-.0048.0384-.0126.0762-.018.1146a.29159.29159,0,0,0,.0504.2142c.0372.054.0762.1068.1128.1614a.53069.53069,0,0,0,.4518.2082,1.58263,1.58263,0,0,0,.2628-.0348.3878.3878,0,0,0,.2736-.216c.0198-.048.0474-.0924.0696-.1398a.16984.16984,0,0,0,.0258-.0756,2.05749,2.05749,0,0,0-.0414-.4056.58685.58685,0,0,0-.2568-.3186"/><path class="b" d="M21.476,23.0099c.1296.0018.1752-.0666.1164-.1704a.66.66,0,0,0-.345-.2562.081.081,0,0,0-.0708.0198.07882.07882,0,0,0-.0018.069c.0402.0852.084.1692.1296.2514.039.0708.1146.0708.1716.0864"/><path class="b" d="M24.91836,21.36578c-.2658.0078-.5322.015-.798.0318a.3198.3198,0,0,0-.1596.0696.19748.19748,0,0,1-.1806.045c-.1254-.0312-.252-.057-.378-.0864-.0504-.012-.0852.0012-.0954.054-.0252.1344-.048.2694-.0732.4032-.0132.0702-.0258.141-.045.2094a.4561.4561,0,0,1-.1686.2496c-.1194.09-.2382.1836-.3576.2742-.033.0258-.0504.0624-.0288.0954.0162.0234.0576.0504.0804.0444a.29713.29713,0,0,0,.135-.0678,1.41,1.41,0,0,1,.5934-.3588.3948.3948,0,0,1,.1134-.0216,3.087,3.087,0,0,0,.993-.1686.2337.2337,0,0,1,.039-.0102c.0726-.0084.0942-.0558.051-.1182-.0384-.0558-.0816-.1074-.1224-.1614-.0066-.009-.0114-.0192-.0192-.0312a.25754.25754,0,0,1,.0366-.0204,1.36749,1.36749,0,0,0,.4968-.3504c.0258-.027.0222-.0456-.0072-.057a.28529.28529,0,0,0-.105-.0246"/><path class="b" d="M20.866,18.77126a.43809.43809,0,0,0-.0546-.8724.4119.4119,0,0,0-.4524.402.48251.48251,0,0,0,.507.4704"/><path class="b" d="M20.76288,17.69546a.10434.10434,0,0,0,.1026-.0708c.0204-.0396.0408-.0792.0612-.1182a.26392.26392,0,0,0,.0006-.2298.13162.13162,0,0,0-.0798-.0564c-.153-.0486-.1758-.0342-.2046.1224-.0066.0324-.0084.0654-.0126.0978l-.0072.0018a1.64428,1.64428,0,0,0,.036.1734.11162.11162,0,0,0,.1038.0798"/><path class="b" d="M21.30606,23.89586a.27064.27064,0,0,0,.1104.0654.71872.71872,0,0,0,.1356.0192.11919.11919,0,0,0,.1248-.069.15246.15246,0,0,1,.0222-.0264c.0528-.0504.0504-.0636-.0186-.0924a.8059.8059,0,0,1-.1386-.0558,1.1331,1.1331,0,0,1-.1776-.1434c-.0294-.03-.0486-.0576-.0954-.0396-.0468.0174-.0864.0414-.0822.0972a.27.27,0,0,0,.0294.1044.62251.62251,0,0,0,.09.1404"/><path class="b" d="M20.31348,20.96732a.26029.26029,0,0,0,.0942.0732,1.02829,1.02829,0,0,0,.4092.0912.25622.25622,0,0,0,.2106-.0774l.0192-.0138a.69753.69753,0,0,0,.147-.9834.7541.7541,0,0,0-.1938-.1398,1.5421,1.5421,0,0,0-.1926-.0786.48413.48413,0,0,0-.39.0024.5554.5554,0,0,0-.312.396c-.0198.096-.0408.1926-.051.2904a.22475.22475,0,0,0,.0294.1344c.0708.1062.15.2064.2298.3054"/><path class="b" d="M19.925,21.65054c.1236.0828.2484.1632.372.2454.0174.0114.0348.024.06.042-.0768.0768-.147.1482-.2208.2226a.60726.60726,0,0,0,.3186.156,1.11935,1.11935,0,0,0,.4764-.006.63528.63528,0,0,1,.4854.0708c.1182.0666.2358.132.3498.2046a1.28959,1.28959,0,0,1,.1524.123c.015.012.0252.0324.042.039.0228.0096.0564.0192.072.009a.07158.07158,0,0,0,.0102-.0696,1.83084,1.83084,0,0,0-.1836-.2784.99553.99553,0,0,0-.4302-.3138.07788.07788,0,0,1-.051-.0876c.0036-.0912.006-.1818.0078-.2718a.3456.3456,0,0,0-.0066-.0864c-.0258-.114-.0648-.1362-.1746-.1056a.30307.30307,0,0,0-.033.0108.19955.19955,0,0,1-.2796-.0564.20685.20685,0,0,0-.1314-.063,1.82042,1.82042,0,0,0-.8082.033c-.0414.0138-.0978.0156-.1074.0732-.009.0594.0408.0834.0798.1092"/><g class="c"><path class="b" d="M16.7,19.46264c.0882.4044-.1854.6534-.411.9084a9.54935,9.54935,0,0,1-2.961,2.1894c-.6084.3024-1.2318.573-2.0166.936,1.419-2.2308,3.9456-4.0938,5.3886-4.0338M5.366,24.86624a6.28318,6.28318,0,0,1-.3384,1.0038c-.615,1.299-1.2414,2.5938-1.9152,3.8628-.4728.891-1.0248,1.7394-1.548,2.6028a3.05469,3.05469,0,0,1-.5454.6894c.663-3.1458,2.4156-5.715,4.3002-8.2146a.24269.24269,0,0,1,.0342-.0462c.0576-.0222.0294.0558.0126.102m14.4816-15.1206c-.3978-.0744-.6534.0786-1.1574.3354-.7926.6228-1.5696,1.2678-2.3802,1.8654q-4.7646,3.5091-9.5484,6.9918a16.00558,16.00558,0,0,1-5.0112,2.733,8.66009,8.66009,0,0,0-1.1556.4302c-.2352.5622.843.471,1.2762.2772a25.54305,25.54305,0,0,0,2.6514-1.1016c1.3476-.7932,2.6124-1.7268,3.9144-2.5986.5802-.3888,1.1094-.7674,1.6938-1.152l.2484-.1926a.50928.50928,0,0,1-.0708.0942,1.08923,1.08923,0,0,1-.0834.111c-.3696.4728-.768.9378-1.152,1.3992-.7422.8916-1.5,1.7712-2.262,2.6688-.1242-.0894-.2016-.15-.2838-.2034-.4194-.2748-.867-.2892-1.098-.0048a.64028.64028,0,0,0,.114.891c.3642.3978.2016.7038-.0534,1.068-.9126,1.3068-1.7916,2.637-2.7036,3.9426A18.67472,18.67472,0,0,0,.06738,33.352a2.95222,2.95222,0,0,0-.0492.981.53434.53434,0,0,0,.933.3546,3.45807,3.45807,0,0,0,.6414-.8376c1.1448-2.055,2.2836-4.1136,3.3996-6.1842a12.45773,12.45773,0,0,0,1.614-4.4682.82.82,0,0,1,.6438-.753c.291-.084.5844-.165.8802-.2304.9786-.2172,1.9584-.4278,3.1056-.6768-.2802.498-.462.8244-.6474,1.149-.6018,1.0542-1.2096,2.106-1.8066,3.1632a5.12041,5.12041,0,0,0-.5016,1.0176c-.0606.2004-.009.5736.1242.6564a.75614.75614,0,0,0,.6708-.1086,1.9113,1.9113,0,0,0,.4698-.6738q.5004-.9792.9594-1.9794a1.09394,1.09394,0,0,1,.7506-.6456,15.17732,15.17732,0,0,0,4.938-2.6052,4.10893,4.10893,0,0,0,1.4046-1.8498c.2094-.603-.024-.9252-.6666-.9498a2.85941,2.85941,0,0,0-1.605.3678c-.5658.3348-1.1406.6552-1.7028.996a2.39925,2.39925,0,0,1-1.803.5928,2.02255,2.02255,0,0,0-.7434.1212c-1.056.2148-2.1108.4332-3.2706.6714a48.20913,48.20913,0,0,1,4.8636-5.5614,38.175,38.175,0,0,1,6.8646-5.376c.5226-.3858.4428-.753.3132-.7776"/></g><path class="b" d="M84.58554,22.44272c.0582-.1494.9366-1.8204,1.518-1.8618.0852-.0078.3594.1344.1116.4854a4.6924,4.6924,0,0,1-1.4322,1.53c-.1116.0684-.2886.0846-.1974-.1536m34.8942-10.5726a7.20033,7.20033,0,0,0-.936-.231c-.6918-.1962-1.3818-.4452-2.0736-.594a19.44835,19.44835,0,0,0-2.187-.3198c-.7758-.0774-1.1694-.0744-2.6352-.1626-.2388-.0138-.7314-.0126-1.0158-.0474l.0006.0036c-.291-.0228-.5832-.048-.8874-.0618.486-.8484.9174-1.5828,1.3314-2.3268.3066-.5502.552-1.1346.8778-1.6722.2262-.3726.705-2.6538-.549-.6336-.717,1.3344-1.3356,2.4108-2.1048,3.7362-.6312,1.0902-.5526.9318-1.284.9516-1.6278.0438-3.2538.1962-4.878.3324-.849.0714-1.32.0996-2.5344.2628-1.3212.1776-2.4714.3984-3.7152.4968a.77223.77223,0,0,0-.3354.126.64.64,0,0,0-.0894.1386c-.1044.2376-.1362.5364.1386.6534a1.96731,1.96731,0,0,0,.8124.0942c.4344-.0108.8664-.0306,1.299-.0444,1.0626-.114,2.0496-.2592,3.1878-.3198,1.4592-.0786,2.9196-.1458,4.38-.1908a14.23451,14.23451,0,0,1,1.446.1092c-.3558.5142-.6276.8934-.8862,1.281-.7476,1.1178-1.5288,2.136-2.319,3.2232-.7374,1.0158-1.5288,2.0676-2.2638,3.0858a21.29418,21.29418,0,0,1-3.876,4.4202,6.90457,6.90457,0,0,1-1.2348.8562c-.3408.1722-.8172.3714-1.0194-.51a9.60046,9.60046,0,0,1,.066-4.3914c.219-.9324.3378-2.5998-1.317-1.206-1.122,1.2504-2.061,2.8548-3.2346,4.1622a5.90448,5.90448,0,0,1,.1716-.8316c.1272-.8358.3186-1.6668.3768-2.5068.0186-.2784.1596-.87-.3132-.9462-.405-.0648-.6042.1764-.8052.2802a3.75432,3.75432,0,0,0-.531.4092c-1.6986,1.3044-3.0924,3.348-4.9842,4.4142-.429.291-.7578.039-.7446-.222-.018-.1158.0912-.327.4344-.5898a4.879,4.879,0,0,0,1.3404-1.6296c.336-.6546.6348-1.1496.0666-1.6602-.3774-.339-.9222-.0678-1.272.2094a4.60711,4.60711,0,0,0-1.5294,2.7504,1.02863,1.02863,0,0,1-.2742.4422,6.71164,6.71164,0,0,1-2.3142,1.5192,8.92184,8.92184,0,0,1-.8886.417,1.64272,1.64272,0,0,0-.3852.2286.52626.52626,0,0,0-.1884.3186c.0036-.0192-.0048.054-.00423.0708v.0018c.099.174.33723.1416.453.1248a3.191,3.191,0,0,0,.9912-.345c.9108-.4752,1.8066-.981,2.7072-1.4736.9918.996,1.521,1.029,2.4846.1704q1.6605-1.4787,3.33-2.9472c.4902-.4302,1.5528-1.4352,1.497-.7848.0102-.1146-.4122,1.8906-.6078,3.051-.0828.4962-.3996,1.3044-.1584,1.7328.2346.4176.78.351,1.0974-.1572.3816-.612.8388-1.2672,1.2318-1.872.5328-.819,1.098-1.6176,1.671-2.4096.1128-.1566,1.1784-1.6092.9924-.8478l-.2388,1.2636a9.81849,9.81849,0,0,0,.0264,3.2892c.0204.0624.0396.1242.0606.186a1.74575,1.74575,0,0,0,1.8474,1.281c.1854-.036.3582-.0744.5292-.1182a6.83026,6.83026,0,0,0,.744-.3798,6.94993,6.94993,0,0,0,1.6278-1.377c.0042-.0048.0096-.0054.0132-.0096.3096-.3618.3276-.3486.5316-.5688a12.72893,12.72893,0,0,0,.9054-1.0596c.6744-.906,1.2726-1.8678,1.9134-2.7984q1.2393-1.7982,2.4996-3.5826c.3084-.4362,1.0542-1.398,1.3302-1.8204.8592-1.317.1116.5412-.213,1.62a.23323.23323,0,0,1-.0072.0672c-.057.1464-.1038.2958-.1524.4452-.0324.0966-.0666.1998-.0996.2976-.0654.2142-.1284.4296-.1926.6444-.0696.2322-.1416.4638-.2244.6912-.021.0768-.042.1524-.0624.2442-.1692.777-.3774,1.5444-.5676,2.3166-.2358.9552-.4488,1.9188-.747,2.8542-.285,1.3332-.5592,2.6682-.8106,4.008-.3432,1.827-.6936,3.06-1.1568,5.3628a1.57444,1.57444,0,0,0,.042.678.5975.5975,0,0,0,.2928.321.60589.60589,0,0,0,.3216.009.565.565,0,0,0,.3408-.2004c.6324-1.299.4854-2.2332.8832-3.531.1152-.7056.3444-1.7532.4584-2.4594.156-.9582.3528-1.9548.5712-2.9022.3138-1.3578.2172-1.0572.4356-1.9506.3786-1.5462.7146-3.4572,1.0866-4.7604.5256-1.839,1.0398-3.6816,1.5912-5.5122a.71075.71075,0,0,1,.519-.3792c.4062-.0342.8148-.0402,1.2246-.0378.705.06,2.0736.1548,2.7444.228.2418.0264.4824.0672.7236.1116.2682.0498.5358.111.8034.1662a6.71481,6.71481,0,0,0,.6858.15c.0282.0042.1554.024.5838.1362.3414.09.3204.0678.552.1476.4188.1464.8154.2952,1.2312.3972.5022.123,1.005.2478,1.5078.3456.0906.0174.1884-.0624.2748-.159a.797.797,0,0,0,.0812-.3648c-.0194-.7776-.2522-1.3128-.5198-1.4292"/><path class="b" d="M64.42752,19.983c.2616.2076-1.2888,2.0466-2.205,2.1006-.2592-.2886,1.0458-2.2152,2.205-2.1006m16.7046-3.162c.1266-.4122-.117-.7164-.5286-.6564a2.08468,2.08468,0,0,0-.8382.3078,7.26445,7.26445,0,0,0-1.1454.9348,13.54123,13.54123,0,0,0-2.1408,2.4126c-.2958.4134-2.0844,3.1362-2.4906,3.6642-.6882,1.1322.7122-2.3388.7572-2.4732.3108-.9252.7116-1.9122.9678-2.7534a.61016.61016,0,0,0-.3726-.8034,1.15283,1.15283,0,0,0-.8616.3642c-.9168,1.0104-1.5162,2.028-2.3976,3.0708-.4074.564-1.6368,2.3178-1.8774,2.658-.996,1.7394,1.1484-3.6666,1.5024-4.7298.1536-.4602.3834-1.3068-.2196-.9216-.8514.8022-1.6602,1.5528-2.4558,2.3172a17.613,17.613,0,0,1-4.6176,3.1194,5.57951,5.57951,0,0,1-1.479.531,1.04772,1.04772,0,0,1-.8838-.3408c-.2424-.402.2394-.5166.5004-.6732a8.08079,8.08079,0,0,0,2.5764-2.1888c.2928-.4146.498-.849.1062-1.3032a1.02073,1.02073,0,0,0-1.3854-.1056,6.30539,6.30539,0,0,0-2.5476,2.8824,2.21622,2.21622,0,0,1-1.2012,1.206c-.2982.1296-.8148.3066-1.0002.4026-.1794.093-.4224.372-.3234.5856.084.201.4716.1374.6222.0846.6096-.2124,1.1976-.486,1.7928-.738.756,1.0662,1.2654,1.0626,2.5626.7584a5.47179,5.47179,0,0,0,1.2888-.4962,13.42081,13.42081,0,0,0,3.3108-2.1228c.756-.6564,1.5228-1.44,2.274-2.1006l.2094-.183c-.5142,1.5234-1.2438,2.946-1.7586,4.2678a13.8385,13.8385,0,0,0-.471,1.4358.9122.9122,0,0,0,.1572.7488.60442.60442,0,0,0,.5862.0198,2.263,2.263,0,0,0,.6054-.666c.9942-1.548,1.7436-2.6538,2.7612-4.1868.156-.1896,1.4364-1.9332,1.9332-2.5428,0,0,.0882-.1104.165-.0612-.462,1.1322-1.107,2.7132-1.5654,3.8466-.4524,1.119-.9114,2.2356-1.3398,3.3636-.0288.1104-.0504.2052-.0702.2946a1.68926,1.68926,0,0,0,.0336.291.78738.78738,0,0,0,.1032.267.19587.19587,0,0,0,.0954.0846c.0108.0024.0426.0108.0624.0162.0072-.0006.0456.0018.0552.0012.0216-.0006.0426-.0018.0636-.0042q-.0459.0045.0126-.0054c.033-.0078.066-.0168.0984-.0276a1.583,1.583,0,0,0,.3948-.2202,3.73165,3.73165,0,0,0,.7398-.915c.222-.33.4542-.6546.708-.9612.0138-.0276.0264-.0564.0414-.0828a1.16438,1.16438,0,0,1,.1656-.2214c.342-.5196.681-1.041.999-1.5762a27.57552,27.57552,0,0,1,3.3858-4.5546c.324-.354.84-.6954,1.1022-.6012.2262.0096-1.0314,2.7228-1.557,4.161-.579,1.5876-1.1028,3.195-1.6392,4.7976-.6798,2.0298-1.3404,4.0662-2.0256,6.0942-.1536.4542-.0432.9018.3702,1.0266,0,0,.0642.0102.258.0192a.713.713,0,0,0,.4836-.45c.63-1.9944,1.2372-3.9972,1.8894-5.985.7518-2.292,1.5486-4.5696,2.3154-6.8574q.5895-1.7559,1.1364-3.5262"/><path class="b" d="M48.1578,22.8968c-.8874-.1704-.1566-2.046.771-2.046.9186,0,.0396,2.3028-.771,2.046M62.1894,14.402a5.88519,5.88519,0,0,0-.9258.7836c-1.0062,1.1904-1.7724,2.3886-2.7438,3.6066-.471.5904-.8994,1.2162-1.3128,1.848q-1.2186,1.8657-2.3952,3.7572c-.5046.8124-1.2942,2.6058-1.7772,3.4314.0456-.6096.2184-2.1798.321-2.8578a49.15338,49.15338,0,0,0,.636-5.3136c.0276-.6516-.3318-.8184-.9444-.5616-.4248.1788-.4032.1614-.6948.273-.0702.033-.141.0654-.2112.0972a14.49116,14.49116,0,0,1-1.3854.5064,1.54,1.54,0,0,1-.6744.1092,2.48215,2.48215,0,0,1-.594-.2514,1.2692,1.2692,0,0,0-1.0536.0834c-.0516.0444-.1038.0888-.1638.1368a39.62273,39.62273,0,0,0-3.3312,3.5964c-.891.9228-1.9788,2.1096-2.4054,2.571a12.92924,12.92924,0,0,1-1.9596,1.8636s-.8184.3312-1.1232.018a1.03016,1.03016,0,0,1-.3276-.7068c-.1278-1.6992.7896-3.219,1.2972-4.7988a15.81883,15.81883,0,0,0,1.2156-3.876c.0204-.3336.0102-.7302-.2604-.8496a1.27866,1.27866,0,0,0-.942.1332,12.33054,12.33054,0,0,0-1.8186,1.2768,10.41083,10.41083,0,0,0-1.1832,1.2246c-.8034.9498-1.4238,1.8204-2.3736,3.0492-.2016.282-.2532.2724-.2532.186.162-.609.5028-1.3332.6534-1.776a14.9651,14.9651,0,0,0,.8748-2.6754c.1014-.6966-.2262-1.3842-1.1844-1.1058-1.443.42-2.8944,2.0586-3.7998,2.8308-.5574.5076-1.1748.9492-1.7652,1.4208-.2208.201-.4158.2742-.1362-.1392.4146-.588,1.1532-1.4298,1.5738-2.013,1.2366-1.7184,1.2648-1.926,2.0208-2.9688.198-.2742.5244-.6432.681-.885.6336-.9726-.2874-.6984-.8946.183-.5058.612-.819,1.128-1.299,1.7598-.7158.942-1.4028,1.908-2.097,2.8668-1.0296,1.422-2.0448,2.853-3.0888,4.2642-.2034.2736-.2868.3846-.5766.8226-.2082.4224-.194.3864-.194.639a.45917.45917,0,0,0,.82641.1194c.6774-.7404,1.368-1.4718,2.0976-2.1588,1.7604-1.6554,3.5304-3.3012,5.3334-4.9098.4662-.4158,1.3218-1.1922,1.7262-.7854.189.3768-.294,1.3368-.6294,2.1078-.5988,1.365-1.0482,2.4414-1.5198,3.5766a7.19836,7.19836,0,0,0-.2928.8592l-.0006.0222c0,.0792-.0006.1584.0036.2376,0,.0054.0036.0582.0036.0684.0054.0324.0138.0636.021.0954a.31109.31109,0,0,0,.153.192c.0252.0156.0504.0276.0756.042l.0156.009.0162.0036a1.49433,1.49433,0,0,0,.1836.0462c.0174.0018.0348.0036.0534.0042a.87458.87458,0,0,0,.0888.0012c.0222,0,.0444-.0024.0672-.0036.003-.0012.0438-.0048.0534-.0072.0336-.0066.066-.015.0978-.0246.009-.003.0456-.018.0576-.0222a1.27282,1.27282,0,0,0,.1632-.0954,1.52023,1.52023,0,0,0,.1296-.1044c.5232-.6996.9906-1.4424,1.4496-2.1852a20.92454,20.92454,0,0,1,3.9222-4.656,5.978,5.978,0,0,1,.957-.6822c.3924-.0864.4704.1998.24.762-.4578,1.032-.471,1.1532-.657,1.5612a28.90321,28.90321,0,0,0-1.908,4.9998,2.89428,2.89428,0,0,0,.2004,2.6562,1.48848,1.48848,0,0,0,1.5678.489,2.95146,2.95146,0,0,0,1.455-.7884c1.116-1.017,2.1726-2.1012,3.2328-3.1782.7518-.7638,1.3776-1.4598,2.136-2.2674.1848.2898.1116.3084.372.5982a.73409.73409,0,0,0,.3024.1746,1.06782,1.06782,0,0,0,.1614.0468,1.55252,1.55252,0,0,0,.3594.0084,1.37294,1.37294,0,0,0,.753-.2706,1.88725,1.88725,0,0,0,.438-.5088c.0576-.1032.12-.2022.1734-.3078.0156-.0306.0324-.0612.0474-.0924.0198-.0396,0,0,.06-.1182.1512-.3012.2604-.5736.3756-.8646.1398-.3528.249-.6174.6348-.7458.735-.2442,1.4538-.5922,2.1852-.8472.1248-.0432.4884-.279.4968.009-.2256,1.413-.402,2.8116-.6258,4.1646-.2316,1.4004-.471,2.7996-.6978,4.2-.0096.1866-.0168.3726-.0204.5592-.0018.1032-.0054.216-.0054.3288a.63894.63894,0,0,0,.1542.3612.30488.30488,0,0,0,.1584.0726.93818.93818,0,0,0,.3168.024,1.5939,1.5939,0,0,0,.9624-.6774c.1194-.147.2256-.3282.3522-.4914.6828-1.3206,1.3698-2.6394,2.0856-3.9414.8628-1.569,1.767-2.9748,2.7624-4.4616,1.0248-1.5318,2.1762-3.0216,3.2688-4.6098.402-.585.8394-1.3764.2256-1.1544"/></svg>